<svg width="32" height="32" viewBox="0 0 32 32" fill="none" xmlns="http://www.w3.org/2000/svg">
<path fill-rule="evenodd" clip-rule="evenodd" d="M17.2356 3.01912C17.6279 3.25575 17.953 3.59893 18.1772 4.013L28.9993 24.0039C29.6927 25.2847 29.2711 26.9163 28.0578 27.6482C27.6754 27.8787 27.2426 28.0001 26.8023 28.0001H5.158C3.7605 28.0001 2.62762 26.8042 2.62762 25.3291C2.62762 24.8642 2.7425 24.4075 2.961 24.0039L13.7831 4.013C14.4765 2.73225 16.0222 2.28725 17.2356 3.01912ZM15.9803 5.33818L5.15819 25.3291H14.0924L16 18.6667H13.3333L14.6769 13.3334H18.6667L17.3333 17.3334H20L14.0943 25.3291H26.8025L15.9803 5.33818Z" fill="#0166A5"/>
</svg>
