<svg width="32" height="32" viewBox="0 0 32 32" fill="none" xmlns="http://www.w3.org/2000/svg">
<path d="M4.00001 12.5C4.00001 12.1022 4.15805 11.7206 4.43935 11.4393C4.72066 11.158 5.10219 11 5.50001 11H6.50001C6.89784 11 7.27937 11.158 7.56067 11.4393C7.84198 11.7206 8.00001 12.1022 8.00001 12.5C8.00001 12.8978 7.84198 13.2794 7.56067 13.5607C7.27937 13.842 6.89784 14 6.50001 14H5.50001C5.10219 14 4.72066 13.842 4.43935 13.5607C4.15805 13.2794 4.00001 12.8978 4.00001 12.5ZM16 4.5C16.3978 4.5 16.7794 4.34196 17.0607 4.06066C17.342 3.77936 17.5 3.39782 17.5 3V2C17.5 1.60218 17.342 1.22064 17.0607 0.93934C16.7794 0.658035 16.3978 0.5 16 0.5C15.6022 0.5 15.2207 0.658035 14.9394 0.93934C14.658 1.22064 14.5 1.60218 14.5 2V3C14.5 3.39782 14.658 3.77936 14.9394 4.06066C15.2207 4.34196 15.6022 4.5 16 4.5ZM8.22126 6.8425C8.36079 6.98203 8.52644 7.09271 8.70874 7.16822C8.89105 7.24374 9.08644 7.2826 9.28376 7.2826C9.48109 7.2826 9.67648 7.24374 9.85878 7.16822C10.0411 7.09271 10.2067 6.98203 10.3463 6.8425C10.4858 6.70297 10.5965 6.53732 10.672 6.35502C10.7475 6.17272 10.7864 5.97732 10.7864 5.78C10.7864 5.58268 10.7475 5.38728 10.672 5.20498C10.5965 5.02268 10.4858 4.85703 10.3463 4.7175L9.63876 4.01125C9.49923 3.87172 9.33359 3.76104 9.15128 3.68553C8.96898 3.61001 8.77359 3.57115 8.57626 3.57115C8.37894 3.57115 8.18355 3.61001 8.00124 3.68553C7.81894 3.76104 7.65329 3.87172 7.51376 4.01125C7.23197 4.29304 7.07366 4.67524 7.07366 5.07375C7.07366 5.47226 7.23197 5.85446 7.51376 6.13625L8.22126 6.8425ZM22.7213 7.2825C22.9184 7.28249 23.1136 7.24363 23.2957 7.16813C23.4778 7.09263 23.6432 6.98198 23.7825 6.8425L24.4888 6.13625C24.6283 5.99672 24.739 5.83107 24.8145 5.64877C24.89 5.46647 24.9289 5.27107 24.9289 5.07375C24.9289 4.87643 24.89 4.68103 24.8145 4.49873C24.739 4.31643 24.6283 4.15078 24.4888 4.01125C24.3492 3.87172 24.1836 3.76104 24.0013 3.68553C23.819 3.61001 23.6236 3.57115 23.4263 3.57115C23.0277 3.57115 22.6456 3.72946 22.3638 4.01125L21.6563 4.7175C21.4462 4.92728 21.3032 5.19466 21.2452 5.48579C21.1872 5.77692 21.217 6.0787 21.3306 6.35294C21.4442 6.62717 21.6367 6.86152 21.8835 7.02633C22.1304 7.19114 22.4207 7.27898 22.7175 7.27875L22.7213 7.2825ZM24 12.5C24 12.8978 24.158 13.2794 24.4394 13.5607C24.7207 13.842 25.1022 14 25.5 14H26.5C26.8978 14 27.2794 13.842 27.5607 13.5607C27.842 13.2794 28 12.8978 28 12.5C28 12.1022 27.842 11.7206 27.5607 11.4393C27.2794 11.158 26.8978 11 26.5 11H25.5C25.1022 11 24.7207 11.158 24.4394 11.4393C24.158 11.7206 24 12.1022 24 12.5ZM11 14C11.3978 14 11.7794 13.842 12.0607 13.5607C12.342 13.2794 12.5 12.8978 12.5 12.5C12.5 11.5717 12.8688 10.6815 13.5251 10.0251C14.1815 9.36875 15.0718 9 16 9C16.9283 9 17.8185 9.36875 18.4749 10.0251C19.1313 10.6815 19.5 11.5717 19.5 12.5C19.5 12.8978 19.658 13.2794 19.9394 13.5607C20.2207 13.842 20.6022 14 21 14C21.3978 14 21.7794 13.842 22.0607 13.5607C22.342 13.2794 22.5 12.8978 22.5 12.5C22.5 10.7761 21.8152 9.12279 20.5962 7.90381C19.3772 6.68482 17.7239 6 16 6C14.2761 6 12.6228 6.68482 11.4038 7.90381C10.1848 9.12279 9.50001 10.7761 9.50001 12.5C9.50001 12.8978 9.65805 13.2794 9.93935 13.5607C10.2207 13.842 10.6022 14 11 14ZM30.295 27.7563C30.1629 27.9825 29.9739 28.1702 29.7467 28.3007C29.5194 28.4312 29.262 28.4999 29 28.5H3.00001C2.73792 28.5 2.4804 28.4314 2.25311 28.3009C2.02581 28.1704 1.83667 27.9826 1.70453 27.7563C1.57239 27.5299 1.50187 27.2729 1.49998 27.0108C1.49809 26.7487 1.5649 26.4907 1.69376 26.2625L7.06876 16.7625C7.19943 16.5311 7.38923 16.3385 7.61875 16.2046C7.84826 16.0706 8.10926 16 8.37501 16H23.625C23.8908 16 24.1518 16.0706 24.3813 16.2046C24.6108 16.3385 24.8006 16.5311 24.9313 16.7625L30.3063 26.2625C30.4351 26.4908 30.5018 26.7488 30.4998 27.0109C30.4978 27.273 30.4272 27.53 30.295 27.7563ZM22.75 19H17.5V20.5H23.6025L22.75 19ZM9.25001 19L8.40251 20.5H14.5V19H9.25001ZM5.57126 25.5H14.5V23.5H6.70126L5.57126 25.5ZM26.4288 25.5L25.3038 23.5H17.5V25.5H26.4288Z" fill="#0166A5"/>
</svg>
