<svg width="32" height="32" viewBox="0 0 32 32" fill="none" xmlns="http://www.w3.org/2000/svg">
<g clip-path="url(#clip0_1_1645)">
<path fill-rule="evenodd" clip-rule="evenodd" d="M2.60928 0.723945C2.48628 0.596599 2.33916 0.495022 2.17648 0.425144C2.01381 0.355265 1.83885 0.318483 1.66181 0.316945C1.48477 0.315406 1.3092 0.349142 1.14534 0.416183C0.981478 0.483224 0.832609 0.582229 0.707419 0.707419C0.582229 0.832609 0.483224 0.981478 0.416183 1.14534C0.349142 1.3092 0.315406 1.48477 0.316945 1.66181C0.318483 1.83885 0.355265 2.01381 0.425144 2.17648C0.495022 2.33916 0.596599 2.48628 0.723945 2.60928L2.39061 4.27595L2.39995 4.28528L29.3906 31.2759C29.5136 31.4033 29.6607 31.5049 29.8234 31.5747C29.9861 31.6446 30.161 31.6814 30.3381 31.6829C30.5151 31.6845 30.6907 31.6508 30.8546 31.5837C31.0184 31.5167 31.1673 31.4177 31.2925 31.2925C31.4177 31.1673 31.5167 31.0184 31.5837 30.8546C31.6508 30.6907 31.6845 30.5151 31.6829 30.3381C31.6814 30.161 31.6446 29.9861 31.5747 29.8234C31.5049 29.6607 31.4033 29.5136 31.2759 29.3906L27.0853 25.1999C29.5559 22.1446 30.9486 18.2919 31.0079 14.2586C31.0124 13.9324 31.0148 13.6006 31.0153 13.2633C31.0153 9.74061 30.7373 6.51661 30.5333 4.62328C30.3679 3.08528 29.3993 1.59261 27.6359 1.19861C25.7859 0.785279 22.3266 0.333279 15.9999 0.333279C9.67328 0.333279 6.21395 0.785945 4.36461 1.19861C4.02861 1.27395 3.71595 1.39195 3.43128 1.54528L2.60928 0.723945ZM2.67728 5.80261C3.02973 5.83051 3.35667 5.99725 3.58621 6.26616C3.81574 6.53508 3.92907 6.88415 3.90128 7.23661C3.76595 8.94328 3.65128 11.0453 3.65128 13.2626C3.65128 13.5857 3.6535 13.9044 3.65795 14.2186C3.73328 19.3553 6.33795 24.1053 10.6846 26.7666C11.7513 27.4199 12.8019 27.9906 13.7533 28.3946C14.7293 28.8099 15.4866 28.9986 15.9999 28.9986C16.5133 28.9986 17.2699 28.8099 18.2466 28.3946C19.1979 27.9906 20.2486 27.4193 21.3146 26.7666C21.5652 26.6129 21.8111 26.4517 22.0519 26.2833C22.3417 26.0806 22.7002 26.0013 23.0484 26.0628C23.2209 26.0933 23.3856 26.1575 23.5333 26.2517C23.6809 26.3458 23.8086 26.4681 23.9089 26.6116C24.0093 26.7551 24.0805 26.917 24.1183 27.0879C24.1561 27.2589 24.1599 27.4357 24.1294 27.6081C24.0989 27.7806 24.0347 27.9453 23.9406 28.0929C23.8464 28.2406 23.7241 28.3682 23.5806 28.4686C23.2962 28.6673 23.0051 28.8579 22.7073 29.0406C21.5786 29.7319 20.4053 30.3753 19.2899 30.8493C18.1993 31.3126 17.0486 31.6653 15.9999 31.6653C14.9513 31.6653 13.7999 31.3119 12.7099 30.8493C11.5946 30.3753 10.4206 29.7319 9.29261 29.0406C4.13195 25.8806 1.07995 20.2673 0.991946 14.2573C0.987501 13.9311 0.985279 13.5995 0.985279 13.2626C0.985279 10.9579 1.10328 8.78261 1.24261 7.02661C1.25634 6.85198 1.30435 6.68176 1.38389 6.52568C1.46343 6.3696 1.57295 6.23073 1.70618 6.117C1.83942 6.00327 1.99376 5.91691 2.16038 5.86285C2.32701 5.80879 2.50265 5.78809 2.67728 5.80195" fill="#0166A5"/>
</g>
<defs>
<clipPath id="clip0_1_1645">
<rect width="32" height="32" fill="white"/>
</clipPath>
</defs>
</svg>
